<svg width="67" height="52" viewBox="0 0 67 52" fill="none" xmlns="http://www.w3.org/2000/svg">
<path d="M66.942 20.6073L46.5973 38.2467L43.0676 8.1547L66.942 20.6073Z" fill="#161616"/>
<path d="M26.9575 19.4262L53.1614 16.3526L54.52 27.935L28.316 31.0086L26.9575 19.4262Z" fill="#161616"/>
<path d="M15.3259 2.87626L24.5214 1.79766L25.0244 6.08643L15.8289 7.16502L15.3259 2.87626Z" fill="#161616"/>
<path d="M15.3259 2.87626L24.5214 1.79766L25.0244 6.08643L15.8289 7.16502L15.3259 2.87626Z" fill="#161616"/>
<path d="M20.3145 45.4065L29.51 44.3279L30.013 48.6167L20.8175 49.6953L20.3145 45.4065Z" fill="#161616"/>
<path d="M6.22488 22.4218L7.52444 33.5011L3.43754 33.9805L2.13799 22.9012L6.22488 22.4218Z" fill="#161616"/>
<path d="M4.08689 4.19454L4.96724 11.6999L0.880347 12.1793L0 4.67392L4.08689 4.19454Z" fill="#161616"/>
<path d="M7.65512 8.12378L0.503055 8.96269L0 4.67392L7.15206 3.83501L7.65512 8.12378Z" fill="#161616"/>
<path d="M4.98863 47.2042L12.1407 46.3653L12.6438 50.654L5.49169 51.4929L4.98863 47.2042Z" fill="#161616"/>
<path d="M8.69823 43.5082L9.57858 51.0136L5.49169 51.4929L4.61134 43.9876L8.69823 43.5082Z" fill="#161616"/>
<path d="M35.7603 0.479375L36.6407 7.98471L40.7276 7.50534L39.8472 -1.61142e-06L35.7603 0.479375Z" fill="#161616"/>
<path d="M33.1982 5.12767L40.3503 4.28876L39.8472 -1.61142e-06L32.6951 0.838907L33.1982 5.12767Z" fill="#161616"/>
<path d="M44.8358 42.5303L37.6838 43.3692L38.1868 47.6579L45.3389 46.819L44.8358 42.5303Z" fill="#161616"/>
<path d="M40.3717 39.7931L41.252 47.2984L45.3389 46.819L44.4586 39.3137L40.3717 39.7931Z" fill="#161616"/>
</svg>
